<?xml version="1.0" standalone="no"?>
<!DOCTYPE svg PUBLIC "-//W3C//DTD SVG 20010904//EN"
 "http://www.w3.org/TR/2001/REC-SVG-20010904/DTD/svg10.dtd">
<svg version="1.0" xmlns="http://www.w3.org/2000/svg"
 width="834.000000pt" height="834.000000pt" viewBox="0 0 834.000000 834.000000"
 preserveAspectRatio="xMidYMid meet">
<metadata>
Created by potrace 1.11, written by Peter Selinger 2001-2013
</metadata>
<g transform="translate(0.000000,834.000000) scale(0.100000,-0.100000)"
fill="#000000" stroke="none">
<path d="M2757 6319 c-69 -16 -192 -90 -246 -148 -98 -106 -150 -264 -114
-340 14 -28 14 -34 2 -42 -16 -10 -8 -12 51 -11 25 1 39 -5 48 -18 11 -19 9
-20 -30 -21 -24 -1 -56 -2 -73 -4 -16 -2 -81 -5 -143 -6 -62 -2 -116 -6 -121
-9 -4 -3 -14 -30 -21 -60 -19 -83 -150 -337 -184 -357 -6 -4 -5 1 3 10 8 10
11 20 9 23 -3 3 -22 -18 -43 -46 -20 -27 -41 -48 -45 -45 -5 3 -12 0 -16 -6
-4 -8 -3 -9 4 -5 7 4 12 4 12 1 0 -8 -28 -36 -35 -35 -3 0 -29 -25 -58 -57
-92 -103 -192 -199 -272 -259 -43 -32 -98 -74 -122 -92 -89 -67 -192 -132
-289 -183 -54 -28 -124 -66 -154 -83 -147 -85 -369 -182 -634 -277 -162 -58
-164 -62 -36 -74 30 -3 66 -7 80 -9 24 -5 197 -26 250 -31 38 -4 161 -17 195
-20 221 -25 684 -24 822 1 31 6 32 5 28 -25 -2 -17 0 -33 6 -36 5 -4 7 -11 3
-16 -3 -5 -1 -16 5 -23 6 -7 9 -21 5 -30 -4 -9 -1 -16 6 -16 6 0 10 -6 7 -12
-2 -7 0 -23 4 -35 5 -13 4 -25 -1 -28 -6 -4 -10 -1 -10 6 0 7 -3 9 -7 6 -3 -4
1 -15 9 -24 17 -21 48 -86 48 -102 0 -6 4 -11 9 -11 5 0 15 -15 21 -34 11 -33
72 -123 94 -138 19 -13 -2 -19 -73 -23 -39 -2 -75 -6 -79 -9 -4 -2 -27 -7 -51
-11 -84 -12 -152 -45 -203 -98 -56 -58 -53 -78 9 -59 21 6 56 14 78 17 32 4
36 3 20 -6 -11 -5 -27 -23 -36 -38 -9 -15 -56 -55 -105 -87 -49 -32 -93 -62
-99 -66 -6 -5 -6 -11 3 -20 9 -9 47 -12 132 -11 66 1 118 -3 115 -7 -9 -15 10
-19 51 -10 52 12 176 25 240 24 65 -1 199 -42 230 -71 14 -13 55 -30 96 -40
l71 -17 -54 -16 c-30 -8 -67 -23 -84 -32 -39 -21 -89 -74 -81 -86 3 -5 38 -8
78 -6 50 3 66 1 52 -5 -11 -5 -27 -20 -36 -33 -17 -25 -89 -68 -110 -64 -25 4
-123 39 -173 61 -78 34 -141 47 -255 49 -112 3 -254 -14 -331 -39 -46 -15
-129 -90 -129 -115 0 -11 46 -9 123 6 16 3 14 -1 -7 -23 -14 -14 -26 -29 -26
-34 0 -4 -36 -34 -80 -65 -81 -58 -89 -67 -69 -79 15 -10 108 -23 168 -24 26
-1 32 -4 27 -17 -7 -17 22 -16 174 4 30 4 98 7 151 6 77 0 101 -4 114 -17 9
-9 28 -19 43 -22 15 -3 86 -22 157 -43 122 -35 138 -37 270 -37 125 0 151 3
238 29 55 16 101 35 104 43 3 7 13 13 22 13 9 0 22 5 29 12 14 14 113 17 187
5 28 -4 109 -14 180 -23 72 -8 144 -17 160 -19 17 -2 55 -7 85 -10 30 -3 69
-8 85 -10 17 -3 46 -7 65 -10 32 -4 33 -4 10 6 -14 6 -50 15 -80 21 -30 5 -59
14 -65 18 -5 4 -37 11 -70 14 -150 16 -171 20 -220 38 -19 6 -35 17 -35 24 0
7 -24 17 -52 24 -29 6 -75 16 -102 22 -27 6 -60 16 -73 23 -24 13 -24 13 -5
19 12 4 40 5 64 2 164 -19 169 -19 161 0 -4 10 -2 15 4 11 10 -6 121 -18 203
-22 25 -1 45 -3 45 -4 0 -1 35 -3 78 -5 80 -3 111 7 57 19 -31 7 -51 25 -28
25 59 2 291 65 348 95 60 32 116 38 198 21 15 -3 43 -8 62 -11 19 -3 71 -14
115 -25 233 -55 294 -69 335 -75 25 -4 54 -9 65 -11 11 -2 51 -7 90 -10 38 -3
72 -7 75 -9 3 -2 12 0 19 4 7 5 -27 13 -81 21 -51 6 -97 16 -103 20 -5 5 -26
11 -46 14 -158 25 -329 82 -315 105 5 8 -65 31 -186 63 -25 6 -57 20 -70 31
l-23 19 60 -6 c58 -5 103 -12 135 -21 41 -12 79 -14 85 -5 3 5 1 10 -6 10 -7
0 -10 2 -8 5 3 2 43 -5 89 -16 47 -12 93 -23 103 -24 9 -2 22 -7 27 -10 6 -3
10 -2 10 4 0 7 8 7 24 1 13 -5 27 -6 30 -3 3 4 6 2 6 -3 0 -5 10 -9 23 -10 12
0 52 -4 90 -8 45 -5 67 -4 67 3 0 9 -37 24 -65 26 -5 0 -9 8 -9 18 1 9 -3 17
-10 18 -6 0 -18 2 -26 4 -97 19 -131 28 -135 35 -3 5 -38 19 -78 31 -64 19
-147 54 -147 63 0 1 19 2 43 1 23 -1 65 1 92 5 46 6 42 7 -35 9 -115 3 -143 5
-155 13 -6 3 -31 9 -55 13 -25 3 -52 8 -60 10 -19 5 -77 13 -138 20 -77 9
-166 41 -157 56 7 10 -12 16 -141 37 -60 11 -119 24 -131 30 -11 6 -23 8 -27
5 -3 -3 -6 -1 -6 5 0 10 33 16 80 14 16 0 151 -13 183 -17 21 -3 37 -1 37 5 0
5 -5 10 -12 10 -6 0 -9 3 -6 6 3 3 32 1 64 -5 127 -22 151 -25 344 -36 105 -6
113 -5 96 9 -11 9 -37 16 -59 16 l-39 0 22 18 c18 14 19 19 7 19 -9 0 -14 -4
-11 -9 3 -4 1 -8 -5 -8 -5 0 -11 4 -13 9 -1 4 -34 11 -72 14 -37 3 -78 13 -90
21 -13 8 -40 17 -62 20 -59 10 -113 26 -174 51 -31 13 -73 26 -95 29 -75 10
-140 19 -160 20 -11 1 -19 8 -17 16 3 11 0 11 -12 0 -10 -8 -16 -9 -16 -2 0 6
9 16 20 22 11 6 20 8 20 5 0 -4 7 0 15 9 8 8 15 19 15 25 0 5 11 18 23 28 13
10 29 29 36 41 7 12 17 20 23 16 6 -4 9 -1 6 7 -2 7 6 23 19 35 12 11 20 24
16 27 -3 4 -2 7 4 7 6 0 13 9 16 21 4 14 10 18 19 13 11 -6 11 -5 0 8 -11 14
-9 20 12 40 14 12 27 37 30 53 2 17 5 32 6 35 1 3 2 9 1 13 -1 5 3 6 8 3 14
-9 23 26 9 36 -8 5 -9 11 -3 16 14 10 35 72 24 72 -5 0 -9 10 -9 23 0 18 2 19
10 7 8 -13 10 -13 10 2 0 9 3 25 6 35 6 16 5 16 -10 -2 -17 -20 -17 -20 -7 2
6 12 16 23 23 25 8 3 9 11 3 24 -8 18 -15 113 -18 249 l-2 60 60 1 c95 2 298
14 325 18 14 3 56 7 93 11 37 3 76 8 85 10 9 1 40 6 67 9 28 4 79 14 115 23
36 9 77 17 92 18 35 3 408 118 408 126 0 3 -51 14 -112 23 -62 10 -120 19
-128 21 -8 1 -37 6 -64 10 -172 24 -813 292 -1061 443 -44 26 -91 54 -104 62
-88 53 -209 147 -286 224 -49 50 -77 72 -61 51 107 -144 353 -318 708 -502 15
-8 30 -19 34 -24 12 -19 360 -178 442 -201 17 -5 32 -13 32 -18 0 -6 -2 -10
-5 -10 -10 0 -212 79 -327 128 -64 27 -119 48 -121 46 -6 -6 -301 145 -405
209 -128 77 -237 156 -316 230 l-66 62 -4 70 c-2 39 -7 79 -10 90 -2 11 -12
52 -21 92 l-17 71 -96 40 c-54 22 -109 44 -124 47 -16 4 -28 11 -28 16 0 5 7
6 15 3 8 -4 17 1 21 10 3 9 9 14 14 11 4 -2 13 7 21 21 14 28 86 84 106 84 7
0 13 4 13 8 0 5 12 9 28 10 41 1 108 28 149 59 64 49 73 106 31 188 -48 91
-128 127 -231 104z m-287 -508 c0 -5 -10 -11 -22 -13 -21 -4 -23 -1 -19 40 l3
44 19 -31 c10 -17 19 -35 19 -40z m141 36 c-10 -9 -11 -8 -5 6 3 10 9 15 12
12 3 -3 0 -11 -7 -18z m22 -94 c18 -9 27 -18 20 -20 -7 -2 -21 1 -33 7 -11 6
-30 8 -40 5 -15 -5 -18 -3 -14 9 8 20 27 20 67 -1z m-733 -493 c-12 -16 -24
-30 -26 -30 -3 0 4 14 16 30 12 17 24 30 26 30 3 0 -4 -13 -16 -30z m-51 -67
c-40 -47 -42 -49 -34 -33 10 19 47 60 53 60 3 0 -5 -12 -19 -27z m-99 -116 c0
-2 -10 -12 -22 -23 l-23 -19 19 23 c18 21 26 27 26 19z m1551 -663 c7 -21 3
-34 -13 -34 -5 0 -7 7 -4 16 3 8 2 12 -4 9 -6 -3 -10 -4 -10 -1 0 2 -3 11 -6
19 -4 11 0 15 12 13 10 -2 21 -11 25 -22z m114 6 c-3 -5 -2 -10 3 -10 5 0 10
-21 10 -47 0 -27 1 -52 2 -58 4 -18 0 -198 -4 -194 -2 2 -5 24 -7 49 -1 25 -7
51 -13 59 -9 12 -8 13 3 7 11 -7 12 4 7 60 -7 95 -10 108 -20 115 -10 8 1 29
15 29 6 0 7 -4 4 -10z m-105 -71 c6 -11 10 -32 9 -47 -2 -15 -1 -32 2 -37 2
-6 2 -30 -2 -55 -3 -25 -7 -43 -8 -40 -3 6 -9 55 -14 115 -3 22 -7 50 -11 63
-9 28 9 29 24 1z m6 -215 c-3 -9 -6 -31 -6 -50 0 -19 -3 -34 -7 -34 -5 0 -6
22 -5 50 2 27 8 50 14 50 6 0 7 -7 4 -16z m-19 -116 c-3 -8 -6 -5 -6 6 -1 11
2 17 5 13 3 -3 4 -12 1 -19z m17 -873 c34 -4 70 -8 81 -10 11 -1 29 -3 40 -4
25 -3 -115 -38 -215 -55 -41 -7 -104 -11 -140 -10 -62 2 -227 15 -242 20 -5 1
-18 2 -30 3 -22 1 -20 11 4 15 27 6 104 17 135 20 18 2 38 8 45 13 7 6 23 9
35 7 12 -2 32 0 44 4 24 9 151 7 243 -3z"/>
<path d="M4515 4312 c-22 -2 -46 -10 -52 -19 -8 -10 -13 -12 -13 -5 0 7 -12
12 -27 11 l-28 -1 25 -7 c22 -6 19 -9 -25 -20 -56 -14 -145 -50 -145 -59 0 -3
10 -36 22 -74 22 -68 22 -69 53 -62 16 3 34 9 40 12 10 6 17 7 73 10 18 1 31
6 28 11 -4 5 9 6 29 1 24 -5 35 -4 35 4 0 8 2 8 8 0 4 -6 21 -18 38 -27 35
-18 41 -28 49 -92 l7 -44 -56 19 c-169 60 -358 -18 -397 -163 -38 -143 23
-279 147 -326 72 -27 182 -22 252 11 l52 25 0 -23 c0 -24 1 -24 114 -24 l113
0 3 133 c6 333 3 442 -15 505 -39 138 -166 216 -330 204z m-18 -18 c-3 -3 -12
-4 -19 -1 -8 3 -5 6 6 6 11 1 17 -2 13 -5z m100 -505 c13 -5 23 -13 23 -19 0
-6 5 -8 11 -5 7 5 9 -4 7 -25 -2 -18 -10 -36 -18 -40 -8 -4 -25 -12 -37 -18
-47 -24 -137 -10 -160 24 -20 32 -10 70 25 89 28 15 101 13 149 -6z"/>
<path d="M6174 4309 c-102 -19 -200 -93 -243 -184 -36 -75 -35 -182 4 -253 29
-54 49 -76 69 -77 6 0 31 -14 56 -30 44 -28 45 -30 45 -82 0 -35 -4 -53 -12
-53 -25 0 -120 -48 -155 -78 -19 -18 -37 -29 -40 -26 -3 3 -8 -2 -12 -11 -4
-11 -2 -14 7 -10 6 4 5 1 -4 -7 -28 -23 -40 -53 -26 -68 9 -10 9 -11 -1 -6
-10 6 -12 -3 -10 -43 2 -27 7 -53 11 -57 4 -4 7 -14 7 -22 0 -31 62 -92 127
-124 80 -39 182 -56 312 -52 114 3 199 24 262 65 140 90 154 275 29 382 -59
50 -189 90 -312 96 -39 2 -15 19 36 25 63 7 116 28 165 64 51 39 69 60 98 121
21 43 26 68 25 127 -1 57 3 74 14 75 8 1 17 2 22 3 4 1 23 5 43 9 l36 7 -3 73
c-1 39 -3 88 -3 108 l-1 36 -117 -24 c-65 -13 -119 -26 -121 -28 -2 -1 -30 8
-64 21 -65 27 -173 37 -244 23z m141 -223 c40 -17 55 -42 55 -92 0 -29 -7 -43
-35 -70 -22 -20 -30 -34 -22 -37 6 -2 -10 -8 -36 -12 -44 -7 -51 -5 -85 22
-46 37 -59 70 -46 120 17 69 94 100 169 69z m-324 -271 l10 -20 -16 20 c-9 11
-21 29 -26 40 l-10 20 16 -20 c9 -11 21 -29 26 -40z m364 -365 c114 -26 113
-90 -2 -115 -18 -3 -31 -12 -30 -18 3 -20 -98 -20 -156 -1 -77 25 -99 42 -95
73 7 56 158 89 283 61z"/>
<path d="M3929 4301 c-14 -5 -35 -14 -47 -20 -14 -8 -22 -8 -22 -1 0 6 -22 9
-52 8 -48 -1 -49 -2 -13 -5 84 -9 49 -18 -56 -15 l-110 3 2 -33 c1 -18 -1
-114 -5 -213 -18 -544 -18 -542 -4 -547 7 -3 62 -5 122 -4 l110 1 2 268 c2
197 6 272 15 283 36 44 105 50 164 15 24 -14 37 -16 41 -9 4 6 26 61 50 122
47 123 47 120 -25 144 -38 13 -132 14 -172 3z"/>
<path d="M5336 4290 c-27 -11 -54 -24 -60 -30 -15 -15 -26 -12 -27 8 0 9 -2
13 -5 7 -2 -6 -45 -9 -109 -7 l-105 3 -1 -118 c-1 -65 -3 -136 -5 -158 -2 -22
-5 -146 -7 -275 l-2 -235 108 -5 c59 -3 112 -3 117 -2 6 2 10 104 10 267 l0
264 26 20 c57 45 154 53 210 16 51 -33 57 -67 57 -332 l-1 -243 124 0 c68 0
124 3 125 8 6 67 4 536 -3 574 -20 107 -81 188 -173 229 -70 32 -209 36 -279
9z m-86 -66 c0 -8 -4 -14 -10 -14 -5 0 -10 9 -10 21 0 11 5 17 10 14 6 -3 10
-13 10 -21z"/>
<path d="M7024 4286 c-80 -29 -123 -57 -172 -110 -120 -130 -149 -327 -72
-493 50 -108 136 -182 257 -218 57 -17 237 -16 268 2 17 10 14 11 -20 7 -28
-3 -20 1 25 13 59 17 152 62 163 81 4 5 -38 125 -48 140 -1 1 -22 -6 -46 -17
-24 -11 -66 -23 -94 -26 -27 -4 -56 -13 -64 -19 -11 -8 -13 -8 -7 2 4 6 2 12
-3 12 -6 0 -11 -6 -11 -12 0 -9 -3 -8 -10 2 -5 8 -12 11 -16 8 -9 -9 -101 27
-126 49 -29 26 -62 93 -46 94 7 0 94 0 193 -1 180 -2 283 -2 329 -1 29 1 36
25 38 122 3 163 -77 287 -229 356 -81 37 -220 41 -309 9z m225 -211 c34 -17
61 -51 61 -76 0 -15 -14 -16 -117 -15 -102 2 -207 -7 -163 -14 8 -1 -1 -6 -20
-10 -40 -10 -44 -8 -36 17 11 35 72 94 111 108 47 16 123 12 164 -10z"/>
<path d="M3395 3750 c-3 -5 -1 -10 4 -10 6 0 11 5 11 10 0 6 -2 10 -4 10 -3 0
-8 -4 -11 -10z"/>
<path d="M4659 2978 c0 -7 -1 -85 -1 -173 l-1 -160 32 -3 31 -3 0 75 0 76 80
0 80 0 0 -75 0 -75 30 0 c22 0 30 5 31 18 0 9 1 88 2 174 l2 158 -32 0 -33 0
0 -69 0 -69 -80 -4 -80 -3 0 73 0 72 -30 0 c-17 0 -30 -5 -31 -12z"/>
<path d="M5312 2829 c1 -135 3 -163 18 -181 14 -17 23 -20 53 -14 31 6 36 11
35 31 -1 14 -7 24 -13 24 -34 -4 -35 0 -35 151 l0 150 -29 0 -29 0 0 -161z"/>
<path d="M5760 2931 l0 -60 -34 6 c-44 7 -102 -21 -121 -58 -32 -61 -10 -154
42 -178 34 -16 79 -14 97 5 9 8 16 11 16 5 0 -6 13 -11 28 -11 l29 0 0 175 0
175 -28 0 c-29 0 -29 -1 -29 -59z m-12 -114 c14 -11 16 -95 3 -116 -14 -21
-69 -18 -86 5 -8 10 -15 33 -15 51 0 50 62 88 98 60z"/>
<path d="M6854 2823 l1 -167 26 -15 c36 -20 81 -8 77 22 -2 14 -10 22 -23 22
-19 0 -20 8 -23 153 l-3 152 -28 0 -29 0 2 -167z"/>
<path d="M7004 2825 c1 -189 6 -203 71 -191 30 6 36 11 33 29 -2 14 -10 22
-23 22 -19 0 -20 8 -23 153 l-3 152 -28 0 -28 0 1 -165z"/>
<path d="M5465 2959 c-14 -43 45 -66 61 -24 8 19 -13 45 -37 45 -10 0 -21 -10
-24 -21z"/>
<path d="M6720 2966 c-27 -33 18 -72 48 -42 13 13 14 20 6 34 -15 23 -38 26
-54 8z"/>
<path d="M5083 2866 c-92 -42 -81 -198 17 -227 102 -31 189 56 154 156 -7 21
-21 46 -31 56 -25 25 -100 33 -140 15z m81 -47 c46 -22 45 -112 -2 -130 -18
-7 -31 -5 -49 6 -31 21 -37 37 -29 81 6 30 18 42 53 53 1 1 13 -4 27 -10z"/>
<path d="M5913 2870 c-24 -10 -29 -26 -14 -49 6 -9 11 -10 15 -2 12 19 64 13
76 -8 18 -35 12 -42 -29 -35 -34 5 -43 3 -65 -19 -32 -32 -33 -69 -3 -97 22
-22 58 -23 101 -5 14 6 17 5 12 -3 -5 -8 1 -12 18 -12 24 0 26 4 27 43 3 144
-4 171 -47 187 -31 12 -61 12 -91 0z m82 -155 c0 -26 -52 -35 -62 -10 -7 20
14 36 42 33 12 -2 20 -11 20 -23z"/>
<path d="M7181 2869 c-15 -6 -21 -14 -17 -25 3 -9 6 -20 6 -25 0 -5 13 -3 29
5 25 13 31 13 50 0 11 -8 21 -23 21 -34 0 -15 -6 -17 -39 -13 -33 5 -44 1 -65
-20 -63 -63 3 -144 83 -104 25 12 29 12 24 1 -4 -10 3 -14 21 -14 14 0 26 6
27 13 1 18 1 97 0 140 -2 70 -66 106 -140 76z m83 -138 c11 -17 -6 -41 -29
-41 -27 0 -39 14 -31 35 6 16 51 20 60 6z"/>
<path d="M7395 2856 c-28 -28 -29 -34 -15 -71 7 -18 27 -34 66 -51 32 -14 54
-30 51 -37 -6 -19 -55 -20 -82 -3 -23 15 -25 15 -35 -3 -15 -28 -14 -31 25
-47 84 -35 165 6 150 76 -6 26 -50 58 -89 64 -20 3 -36 17 -36 32 0 17 51 19
80 4 15 -8 20 -6 26 12 9 29 -13 44 -70 47 -38 1 -51 -3 -71 -23z"/>
<path d="M5470 2755 l0 -115 29 0 29 0 1 115 0 115 -30 0 -29 0 0 -115z"/>
<path d="M6090 2860 c0 -5 22 -56 48 -113 35 -74 47 -109 41 -124 -8 -21 -35
-37 -49 -28 -5 3 -12 -4 -15 -16 -13 -42 48 -54 82 -16 19 21 54 98 107 240
l25 67 -33 0 c-32 0 -33 -2 -56 -75 -23 -73 -24 -74 -36 -47 -56 126 -53 122
-84 122 -17 0 -30 -4 -30 -10z"/>
<path d="M6440 2864 c0 -3 6 -18 14 -32 17 -32 62 -131 76 -167 15 -38 55 -34
69 8 7 17 11 32 11 32 -1 0 15 35 34 78 20 43 36 80 36 83 0 2 -13 4 -29 4
-25 0 -31 -6 -49 -47 -11 -27 -23 -59 -27 -73 l-8 -25 -11 30 c-41 107 -47
115 -82 115 -19 0 -34 -3 -34 -6z"/>
<path d="M6720 2755 l0 -115 29 0 29 0 0 115 -1 115 -29 0 -28 0 0 -115z"/>
</g>
</svg>
